<?xml version="1.0" encoding="utf-8"?>
<svg 
 xmlns="http://www.w3.org/2000/svg"
 xmlns:xlink="http://www.w3.org/1999/xlink"
 width="500px" height="500px">
<path fill-rule="evenodd" stroke="rgba(0, 0, 0, 0)" stroke-width="30px" stroke-linecap="butt" stroke-linejoin="miter" fill="hsl(213 68% 75%)"
 d="M125.690,1.500 L125.690,177.932 L91.680,177.932 L91.680,200.419 L127.390,200.419 L127.390,235.014 L144.395,235.014 L144.395,262.689 L20.259,262.689 C20.259,262.689 0.077,262.834 1.553,285.176 C3.030,307.518 21.959,473.716 21.959,473.716 C21.959,473.716 24.165,501.195 45.766,501.392 C67.367,501.589 411.374,501.392 411.374,501.392 C411.374,501.392 445.196,499.351 445.384,470.257 C445.571,441.163 445.384,437.392 445.384,437.392 L435.181,437.392 L435.181,427.014 L481.094,380.311 L481.094,215.986 L501.500,215.986 L501.500,190.041 L455.587,190.041 L455.587,363.014 L435.181,382.041 L435.181,363.014 L411.374,273.068 L370.562,224.635 L370.562,203.878 L399.470,203.878 L399.470,177.932 L370.562,177.932 L370.562,1.500 L328.049,1.500 L328.049,32.635 L294.039,32.635 L294.039,62.041 L200.512,62.041 L200.512,32.635 L166.502,32.635 L166.502,1.500 L125.690,1.500 ZM151.197,62.041 L181.806,62.041 L181.806,93.176 L311.044,93.176 L311.044,63.770 L345.054,63.770 L345.054,219.446 L316.146,219.446 L316.146,247.122 L353.557,247.122 L387.567,286.905 L407.973,369.932 L407.973,437.392 L351.856,437.392 L351.856,373.392 L379.064,345.716 L365.460,318.041 L322.948,361.284 L322.948,437.392 L316.146,437.392 L299.141,286.905 C299.141,286.905 298.363,262.935 277.034,262.689 C255.705,262.444 169.903,262.689 169.903,262.689 L169.903,228.095 L151.197,228.095 L151.197,62.041 ZM169.903,139.878 L169.903,176.203 L200.512,176.203 L200.512,139.878 L169.903,139.878 ZM219.217,174.473 L219.217,203.878 L246.425,203.878 L246.425,174.473 L219.217,174.473 ZM268.532,138.149 L268.532,176.203 L299.141,176.203 L299.141,138.149 L268.532,138.149 ZM319.547,465.068 L321.247,473.716 L407.973,473.716 C407.973,473.716 417.447,468.769 418.176,465.068 L319.547,465.068 ZM151.197,407.986 L226.019,407.986 L226.019,439.122 L151.197,439.122 L151.197,407.986 ZM84.878,349.176 L103.583,328.419 L156.299,378.581 L103.583,439.122 L83.177,420.095 L118.888,383.770 L84.878,349.176 ZM28.761,290.365 L49.167,475.446 L292.339,475.446 L271.933,290.365 L28.761,290.365 Z"/>
</svg>